<svg data-v-423bf9ae="" xmlns="http://www.w3.org/2000/svg" viewBox="0 0 475 90" class="iconLeft"><!----><!----><!----><g data-v-423bf9ae="" id="675a61f4-02c7-4b48-855d-7fd0ed08bdfc" fill="black" transform="matrix(4.31654691696167,0,0,4.31654691696167,112.37739562988281,0.5395700335502625)"><path d="M2.28 6.38C2.28 5.12 2.70 4.68 3.88 4.68C4.12 4.68 4.33 4.70 4.49 4.73L4.49 3.65C4.27 3.61 4.00 3.58 3.70 3.58C1.79 3.58 0.99 4.41 0.99 6.55L0.99 14.55L2.28 14.55L2.28 7.64L4.26 7.64L4.26 6.51L2.28 6.51ZM9.65 14.55L10.79 14.55L10.79 8.83C10.79 6.79 9.80 6.08 8.11 6.08C6.22 6.08 5.31 6.90 5.31 8.79L6.48 8.79C6.48 7.53 7.04 7.14 8.05 7.14C9.10 7.14 9.56 7.67 9.56 8.90L9.56 9.93C9.17 9.87 8.60 9.83 8.22 9.83C5.99 9.83 5.05 10.64 5.05 12.38C5.05 13.94 5.99 14.71 7.49 14.71C8.37 14.71 9.16 14.43 9.60 13.78ZM9.56 11.80C9.56 13.03 8.72 13.65 7.77 13.65C6.82 13.65 6.34 13.19 6.34 12.26C6.34 11.28 6.85 10.81 8.26 10.81C8.60 10.81 9.18 10.85 9.56 10.91ZM12.66 6.24L12.66 17.25L13.94 17.25L13.94 14.00C14.32 14.45 15.01 14.71 15.82 14.71C17.29 14.71 18.47 13.83 18.47 11.58L18.47 9.28C18.47 7.20 17.64 6.08 15.95 6.08C14.94 6.08 14.21 6.40 13.85 6.92L13.78 6.24ZM13.94 8.88C13.94 7.76 14.59 7.21 15.58 7.21C16.70 7.21 17.18 7.87 17.18 9.25L17.18 11.51C17.18 13.05 16.55 13.58 15.55 13.58C14.64 13.58 13.94 13.10 13.94 11.76ZM21.52 6.24L20.23 6.24L20.23 14.55L21.52 14.55ZM21.53 3.35L20.22 3.35L20.22 4.70L21.53 4.70ZM27.83 14.55L28.98 14.55L28.98 8.83C28.98 6.79 27.99 6.08 26.29 6.08C24.40 6.08 23.49 6.90 23.49 8.79L24.67 8.79C24.67 7.53 25.23 7.14 26.24 7.14C27.29 7.14 27.75 7.67 27.75 8.90L27.75 9.93C27.36 9.87 26.78 9.83 26.40 9.83C24.18 9.83 23.24 10.64 23.24 12.38C23.24 13.94 24.18 14.71 25.68 14.71C26.56 14.71 27.34 14.43 27.79 13.78ZM27.75 11.80C27.75 13.03 26.91 13.65 25.96 13.65C25.00 13.65 24.53 13.19 24.53 12.26C24.53 11.28 25.03 10.81 26.45 10.81C26.78 10.81 27.37 10.85 27.75 10.91ZM31.91 9.28C31.91 7.67 32.31 7.21 33.53 7.21C34.73 7.21 35.14 7.67 35.14 9.28L35.14 11.51C35.14 13.12 34.73 13.58 33.53 13.58C32.31 13.58 31.91 13.12 31.91 11.51ZM33.53 6.08C31.53 6.08 30.62 6.93 30.62 9.27L30.62 11.52C30.62 13.86 31.53 14.71 33.53 14.71C35.53 14.71 36.44 13.86 36.44 11.52L36.44 9.27C36.44 6.93 35.53 6.08 33.53 6.08ZM41.44 9.65L38.04 9.65L38.04 10.72L41.44 10.72ZM46.51 6.24L45.00 12.95L43.68 6.24L42.27 6.24L44.20 14.55L45.68 14.55L47.15 8.23L48.62 14.55L50.11 14.55L52.04 6.24L50.69 6.24L49.38 12.99L47.89 6.24ZM54.26 9.28C54.26 7.67 54.67 7.21 55.89 7.21C57.09 7.21 57.50 7.67 57.50 9.28L57.50 11.51C57.50 13.12 57.09 13.58 55.89 13.58C54.67 13.58 54.26 13.12 54.26 11.51ZM55.89 6.08C53.89 6.08 52.98 6.93 52.98 9.27L52.98 11.52C52.98 13.86 53.89 14.71 55.89 14.71C57.89 14.71 58.80 13.86 58.80 11.52L58.80 9.27C58.80 6.93 57.89 6.08 55.89 6.08ZM60.56 6.24L60.56 14.55L61.85 14.55L61.85 9.38C61.85 8.02 62.66 7.41 63.69 7.41C63.90 7.41 64.05 7.42 64.20 7.45L64.20 6.12C64.09 6.10 63.94 6.09 63.80 6.09C62.87 6.09 62.13 6.62 61.80 7.22L61.68 6.24ZM71.47 6.24L69.92 6.24L67.56 9.51L66.77 9.51L66.77 3.74L65.48 3.74L65.48 14.55L66.77 14.55L66.77 10.65L67.56 10.65L70.28 14.55L71.89 14.55L68.63 10.02ZM77.15 12.22C77.13 13.17 76.73 13.61 75.60 13.61C74.40 13.61 73.98 13.03 73.98 11.63L73.98 10.71L78.43 10.71L78.43 9.17C78.43 7.04 77.55 6.08 75.59 6.08C73.65 6.08 72.70 7.08 72.70 9.24L72.70 11.54C72.70 13.82 73.61 14.71 75.61 14.71C77.53 14.71 78.32 13.87 78.36 12.22ZM75.60 7.20C76.82 7.20 77.20 7.87 77.20 9.23L77.20 9.69L73.98 9.69L73.98 9.30C73.98 7.80 74.40 7.20 75.60 7.20ZM80.15 6.24L80.15 14.55L81.44 14.55L81.44 9.38C81.44 8.02 82.25 7.41 83.27 7.41C83.48 7.41 83.64 7.42 83.79 7.45L83.79 6.12C83.68 6.10 83.52 6.09 83.38 6.09C82.46 6.09 81.72 6.62 81.38 7.22L81.27 6.24Z"></path></g><!----><g data-v-423bf9ae="" id="0a3beebc-d918-478a-8dc7-85a605d7b225" transform="matrix(3.020336866378784,0,0,3.020336866378784,0.6746101379394531,-6.446761131286621)" stroke="none" fill="black"><circle cx="25.044" cy="25.043" r="6.956"></circle><circle cx="6.956" cy="25.043" r="6.956"></circle><path d="M.172 2.201H13.74v13.568H.172zM18.432 2.201H32v13.568H18.432z"></path></g><!----></svg>